<?xml version="1.0" standalone="no"?>
<!DOCTYPE svg PUBLIC "-//W3C//DTD SVG 20010904//EN"
 "http://www.w3.org/TR/2001/REC-SVG-20010904/DTD/svg10.dtd">
<svg version="1.0" xmlns="http://www.w3.org/2000/svg"
 width="1207.000000pt" height="1280.000000pt" viewBox="0 0 1207.000000 1280.000000"
 preserveAspectRatio="xMidYMid meet">
<metadata>
Created by potrace 1.15, written by Peter Selinger 2001-2017
</metadata>
<g transform="translate(0.000000,1280.000000) scale(0.100000,-0.100000)"
fill="#000000" stroke="none">
<path d="M5535 12780 c-82 -10 -183 -19 -222 -19 -67 -1 -73 -3 -78 -23 -3
-13 -66 -356 -140 -763 -74 -407 -140 -763 -146 -791 l-10 -51 -54 -12 c-272
-61 -712 -235 -1018 -403 -116 -63 -132 -70 -151 -58 -12 7 -308 219 -659 471
-350 253 -641 459 -646 459 -11 0 -198 -151 -351 -284 -215 -187 -597 -586
-747 -783 l-25 -32 43 -63 c24 -35 229 -334 456 -665 227 -332 413 -607 413
-613 0 -5 -15 -33 -34 -62 -108 -171 -274 -515 -365 -761 -50 -135 -141 -426
-141 -452 0 -8 -4 -16 -9 -19 -5 -3 -365 -62 -801 -131 -437 -69 -794 -126
-795 -127 -7 -8 -36 -339 -46 -508 -13 -221 -7 -669 12 -892 l12 -147 51 -10
c65 -13 1317 -237 1451 -260 97 -16 100 -17 107 -46 89 -357 185 -632 323
-922 54 -113 177 -339 231 -424 l17 -26 -470 -644 c-258 -354 -472 -649 -475
-654 -15 -24 386 -473 593 -665 204 -190 444 -395 476 -407 7 -3 314 203 683
456 l670 461 97 -56 c362 -210 796 -383 1194 -476 118 -27 140 -35 144 -53 3
-11 48 -294 101 -630 52 -335 108 -684 122 -775 l27 -165 70 -7 c143 -15 778
-21 970 -9 181 11 476 39 484 47 5 4 96 485 248 1312 l58 313 40 10 c84 22
325 103 435 147 270 106 568 257 783 398 55 36 103 61 110 57 7 -3 299 -215
651 -471 637 -463 638 -464 660 -445 11 11 59 52 106 93 219 192 455 431 645
655 92 108 260 321 279 352 4 8 -170 268 -463 693 l-470 680 89 181 c177 358
261 603 379 1104 l7 30 235 37 c129 21 485 78 792 126 306 49 559 91 561 93 2
2 10 105 17 229 14 256 7 603 -16 835 -19 193 -61 504 -69 512 -4 4 -367 72
-809 153 l-802 145 -47 140 c-27 77 -66 187 -89 245 -57 147 -232 501 -323
652 -42 70 -76 129 -76 132 0 3 212 296 471 651 259 355 469 652 466 659 -9
23 -218 265 -364 421 -200 215 -564 542 -748 673 l-40 29 -680 -468 c-374
-258 -685 -469 -691 -469 -6 0 -57 25 -115 56 -288 155 -638 295 -939 375 -47
12 -87 24 -89 26 -2 1 -61 362 -130 800 l-126 798 -105 12 c-256 28 -376 34
-705 38 -301 4 -371 2 -500 -15z m708 -4325 c555 -73 1032 -413 1282 -914 53
-107 116 -289 139 -403 119 -582 -88 -1191 -534 -1576 -245 -211 -526 -341
-855 -393 -103 -17 -377 -17 -480 0 -795 126 -1374 768 -1411 1565 -28 587
262 1149 761 1476 200 131 421 209 715 253 65 10 280 5 383 -8z"/>
</g>
</svg>
